M48
; DRILL file {KiCad 7.0.8} date Tue Dec  5 22:14:18 2023
; FORMAT={-:-/ absolute / inch / decimal}
; #@! TF.CreationDate,2023-12-05T22:14:18-08:00
; #@! TF.GenerationSoftware,Kicad,Pcbnew,7.0.8
; #@! TF.FileFunction,Plated,1,2,PTH
FMAT,2
INCH
; #@! TA.AperFunction,Plated,PTH,ViaDrill
T1C0.0157
; #@! TA.AperFunction,Plated,PTH,ViaDrill
T2C0.0315
; #@! TA.AperFunction,Plated,PTH,ComponentDrill
T3C0.0315
; #@! TA.AperFunction,Plated,PTH,ComponentDrill
T4C0.0394
; #@! TA.AperFunction,Plated,PTH,ComponentDrill
T5C0.0591
; #@! TA.AperFunction,Plated,PTH,ComponentDrill
T6C0.0598
%
G90
G05
T1
X2.3091Y-1.0886
X2.5Y-1.4862
X2.5Y-1.7421
X2.5472Y-3.4547
X2.6378Y-1.4272
X2.6378Y-1.7028
X2.6378Y-3.0906
X2.6673Y-2.1555
X2.687Y-2.7854
X2.7165Y-2.2108
X2.7244Y-3.4567
X2.7392Y-3.0906
X2.7461Y-1.2554
X2.7461Y-1.4808
X2.7657Y-1.9193
X2.7657Y-2.8108
X2.815Y-2.4108
X2.8392Y-3.0906
X2.8642Y-2.6636
X2.9016Y-3.4567
X2.9134Y-2.7108
X2.9626Y-2.5098
X2.9862Y-1.0886
X3.0118Y-1.9193
X3.0118Y-2.0876
X3.0392Y-3.1693
X3.0787Y-3.4567
X3.2124Y-3.2616
X3.2579Y-3.4116
X3.3563Y-3.1616
X3.3563Y-3.2616
X3.3563Y-3.4116
X3.4449Y-3.1616
X3.4449Y-3.3616
X3.4449Y-3.5116
X3.563Y-2.7264
X3.5925Y-3.3858
X3.6319Y-3.3366
X3.6713Y-3.435
X3.6929Y-3.002
X3.7106Y-3.2874
X4.1535Y-2.2047
X4.252Y-2.372
X4.3504Y-2.2047
X4.439Y-2.7362
X4.5177Y-3.2579
X4.5177Y-3.6516
X4.5374Y-1.9181
X4.5374Y-2.0976
X4.5965Y-2.5295
X4.626Y-1.5748
X4.626Y-1.6535
X4.626Y-1.7323
X4.7244Y-1.5748
X4.7244Y-1.6535
X4.7244Y-1.7323
X4.7539Y-2.5787
X4.7638Y-1.9291
X4.7638Y-2.0079
X4.7638Y-2.0866
X4.7879Y-2.7362
X4.8031Y-1.5748
X4.8031Y-1.6535
X4.8031Y-1.7323
X4.8622Y-1.9291
X4.8622Y-2.0079
X4.8622Y-2.0866
X4.8622Y-2.628
X4.9409Y-1.9291
X4.9409Y-2.0079
X4.9409Y-2.0866
X4.9622Y-1.7913
X4.9803Y-2.4311
X5.128Y-2.6476
X5.2528Y-3.2874
X5.2528Y-3.435
X5.3642Y-2.4311
X5.374Y-1.9291
X5.374Y-2.0079
X5.374Y-2.0866
X5.4232Y-2.7185
X5.4528Y-2.628
X5.4528Y-3.248
X5.4724Y-1.9291
X5.4724Y-2.0079
X5.4724Y-2.0866
X5.5118Y-1.5748
X5.5118Y-1.6535
X5.5118Y-1.7323
X5.5512Y-1.9291
X5.5512Y-2.0079
X5.5512Y-2.0866
X5.6102Y-1.5748
X5.6102Y-1.6535
X5.6102Y-1.7323
X5.6201Y-1.8307
X5.6693Y-2.5295
X5.689Y-1.5748
X5.689Y-1.6535
X5.689Y-1.7323
X5.7776Y-1.9181
X5.7776Y-2.0976
X6.1024Y-2.4508
X6.3386Y-2.5492
X6.3878Y-3.6024
X6.9685Y-1.0728
X6.9685Y-1.565
X6.9783Y-3.6024
T2
X4.9803Y-1.2992
X4.9803Y-1.3878
X4.9803Y-1.4764
X5.0689Y-1.2992
X5.0689Y-1.4764
X5.0689Y-1.565
X5.0689Y-1.6535
X5.0689Y-1.7421
X5.1575Y-1.2992
X5.1575Y-1.7421
X5.2461Y-1.2992
X5.2461Y-1.4764
X5.2461Y-1.565
X5.2461Y-1.6535
X5.2461Y-1.7421
X5.3346Y-1.2992
X5.3346Y-1.3878
X5.3346Y-1.4764
X6.7323Y-2.4803
X6.7323Y-2.5984
X6.7323Y-2.7165
X6.7323Y-2.8346
X6.8504Y-2.4803
X6.8504Y-2.5984
X6.8504Y-2.7165
X6.8504Y-2.8346
X6.9685Y-2.7165
X6.9685Y-2.8346
X7.0866Y-2.7165
X7.0866Y-2.8346
T3
X3.1772Y-2.0108
X3.1772Y-2.1108
X3.1772Y-2.2108
X3.1772Y-2.3108
X3.1772Y-2.4108
X3.1772Y-2.5108
X3.1772Y-2.6108
X3.1772Y-2.7108
X3.1772Y-2.8108
X3.1772Y-2.9108
X3.4772Y-2.0108
X3.4772Y-2.1108
X3.4772Y-2.2108
X3.4772Y-2.3108
X3.4772Y-2.4108
X3.4772Y-2.5108
X3.4772Y-2.6108
X3.4772Y-2.7108
X3.4772Y-2.8108
X3.4772Y-2.9108
T4
X2.2835Y-2.2031
X2.2835Y-2.3031
X2.2835Y-2.4031
X4.3177Y-3.1465
X4.3177Y-3.5465
X4.4177Y-3.1465
X4.4177Y-3.5465
X4.5177Y-3.1465
X4.5177Y-3.5465
X4.6177Y-3.1465
X4.6177Y-3.5465
X4.7177Y-3.1465
X4.7177Y-3.5465
X5.2528Y-3.1465
X5.2528Y-3.5465
X5.3528Y-3.1465
X5.3528Y-3.5465
X5.4528Y-3.1465
X5.4528Y-3.5465
X5.5528Y-3.1465
X5.5528Y-3.5465
X5.6528Y-3.1465
X5.6528Y-3.5465
X6.5846Y-2.9528
X6.5846Y-3.5236
X6.6831Y-3.5236
X6.7815Y-2.9528
X6.7815Y-3.5236
T6
X2.5476Y-0.7776
X2.7476Y-0.7776
X5.0575Y-0.7382
X5.2575Y-0.7382
X7.2047Y-1.0811
X7.2047Y-1.2811
X7.2047Y-1.5732
X7.2047Y-1.7732
T5
G00X6.4626Y-3.2539
M15
G01X6.4626Y-3.2028
M16
G05
G00X6.9035Y-3.2539
M15
G01X6.9035Y-3.2028
M16
G05
T0
M30
