%TF.GenerationSoftware,KiCad,Pcbnew,7.0.8*%
%TF.CreationDate,2023-12-05T22:14:16-08:00*%
%TF.ProjectId,Proofer_Project,50726f6f-6665-4725-9f50-726f6a656374,rev?*%
%TF.SameCoordinates,Original*%
%TF.FileFunction,Soldermask,Bot*%
%TF.FilePolarity,Negative*%
%FSLAX46Y46*%
G04 Gerber Fmt 4.6, Leading zero omitted, Abs format (unit mm)*
G04 Created by KiCad (PCBNEW 7.0.8) date 2023-12-05 22:14:16*
%MOMM*%
%LPD*%
G01*
G04 APERTURE LIST*
G04 Aperture macros list*
%AMRoundRect*
0 Rectangle with rounded corners*
0 $1 Rounding radius*
0 $2 $3 $4 $5 $6 $7 $8 $9 X,Y pos of 4 corners*
0 Add a 4 corners polygon primitive as box body*
4,1,4,$2,$3,$4,$5,$6,$7,$8,$9,$2,$3,0*
0 Add four circle primitives for the rounded corners*
1,1,$1+$1,$2,$3*
1,1,$1+$1,$4,$5*
1,1,$1+$1,$6,$7*
1,1,$1+$1,$8,$9*
0 Add four rect primitives between the rounded corners*
20,1,$1+$1,$2,$3,$4,$5,0*
20,1,$1+$1,$4,$5,$6,$7,0*
20,1,$1+$1,$6,$7,$8,$9,0*
20,1,$1+$1,$8,$9,$2,$3,0*%
G04 Aperture macros list end*
%ADD10RoundRect,0.050000X1.500000X1.500000X-1.500000X1.500000X-1.500000X-1.500000X1.500000X-1.500000X0*%
%ADD11C,3.100000*%
%ADD12RoundRect,0.050000X1.500000X-1.500000X1.500000X1.500000X-1.500000X1.500000X-1.500000X-1.500000X0*%
%ADD13RoundRect,0.050000X1.000000X-1.000000X1.000000X1.000000X-1.000000X1.000000X-1.000000X-1.000000X0*%
%ADD14C,2.100000*%
%ADD15RoundRect,0.050000X1.000000X-1.600000X1.000000X1.600000X-1.000000X1.600000X-1.000000X-1.600000X0*%
%ADD16O,1.800000X1.800000*%
%ADD17RoundRect,0.050000X0.850000X0.850000X-0.850000X0.850000X-0.850000X-0.850000X0.850000X-0.850000X0*%
%ADD18O,1.700000X1.700000*%
%ADD19RoundRect,0.050000X-0.800000X-0.800000X0.800000X-0.800000X0.800000X0.800000X-0.800000X0.800000X0*%
%ADD20C,3.300000*%
%ADD21C,1.800000*%
G04 APERTURE END LIST*
D10*
%TO.C,J7*%
X69790000Y-19750000D03*
D11*
X64710000Y-19750000D03*
%TD*%
D10*
%TO.C,J1*%
X133540000Y-18750000D03*
D11*
X128460000Y-18750000D03*
%TD*%
D12*
%TO.C,J2*%
X183000000Y-45040000D03*
D11*
X183000000Y-39960000D03*
%TD*%
D12*
%TO.C,J3*%
X183000000Y-32540000D03*
D11*
X183000000Y-27460000D03*
%TD*%
D13*
%TO.C,SW1*%
X167250000Y-89500000D03*
D14*
X172250000Y-89500000D03*
X169750000Y-89500000D03*
D15*
X175350000Y-82000000D03*
X164150000Y-82000000D03*
D14*
X172250000Y-75000000D03*
X167250000Y-75000000D03*
%TD*%
D16*
%TO.C,J5*%
X58000000Y-55960000D03*
X58000000Y-58500000D03*
D17*
X58000000Y-61040000D03*
%TD*%
D14*
%TO.C,U12*%
X133420000Y-90080000D03*
X135960000Y-90080000D03*
X138500000Y-90080000D03*
X141040000Y-90080000D03*
X143580000Y-90080000D03*
X143580000Y-79920000D03*
X141040000Y-79920000D03*
X138500000Y-79920000D03*
X135960000Y-79920000D03*
X133420000Y-79920000D03*
%TD*%
D18*
%TO.C,U10*%
X88320000Y-51075000D03*
X88320000Y-53615000D03*
X88320000Y-56155000D03*
X88320000Y-58695000D03*
X88320000Y-61235000D03*
X88320000Y-63775000D03*
X88320000Y-66315000D03*
X88320000Y-68855000D03*
X88320000Y-71395000D03*
X88320000Y-73935000D03*
X80700000Y-73935000D03*
X80700000Y-71395000D03*
X80700000Y-68855000D03*
X80700000Y-66315000D03*
X80700000Y-63775000D03*
X80700000Y-61235000D03*
X80700000Y-58695000D03*
X80700000Y-56155000D03*
X80700000Y-53615000D03*
D19*
X80700000Y-51075000D03*
%TD*%
D20*
%TO.C,H3*%
X51000000Y-93000000D03*
%TD*%
D14*
%TO.C,U6*%
X109670000Y-90080000D03*
X112210000Y-90080000D03*
X114750000Y-90080000D03*
X117290000Y-90080000D03*
X119830000Y-90080000D03*
X119830000Y-79920000D03*
X117290000Y-79920000D03*
X114750000Y-79920000D03*
X112210000Y-79920000D03*
X109670000Y-79920000D03*
%TD*%
D20*
%TO.C,H4*%
X183000000Y-93000000D03*
%TD*%
%TO.C,H1*%
X51000000Y-19000000D03*
%TD*%
D21*
%TO.C,J6*%
X182630200Y-58308100D03*
%TD*%
D20*
%TO.C,H2*%
X183000000Y-19000000D03*
%TD*%
M02*
