%TF.GenerationSoftware,KiCad,Pcbnew,7.0.8*%
%TF.CreationDate,2023-12-05T22:14:16-08:00*%
%TF.ProjectId,Proofer_Project,50726f6f-6665-4725-9f50-726f6a656374,rev?*%
%TF.SameCoordinates,Original*%
%TF.FileFunction,Soldermask,Top*%
%TF.FilePolarity,Negative*%
%FSLAX46Y46*%
G04 Gerber Fmt 4.6, Leading zero omitted, Abs format (unit mm)*
G04 Created by KiCad (PCBNEW 7.0.8) date 2023-12-05 22:14:16*
%MOMM*%
%LPD*%
G01*
G04 APERTURE LIST*
G04 Aperture macros list*
%AMRoundRect*
0 Rectangle with rounded corners*
0 $1 Rounding radius*
0 $2 $3 $4 $5 $6 $7 $8 $9 X,Y pos of 4 corners*
0 Add a 4 corners polygon primitive as box body*
4,1,4,$2,$3,$4,$5,$6,$7,$8,$9,$2,$3,0*
0 Add four circle primitives for the rounded corners*
1,1,$1+$1,$2,$3*
1,1,$1+$1,$4,$5*
1,1,$1+$1,$6,$7*
1,1,$1+$1,$8,$9*
0 Add four rect primitives between the rounded corners*
20,1,$1+$1,$2,$3,$4,$5,0*
20,1,$1+$1,$4,$5,$6,$7,0*
20,1,$1+$1,$6,$7,$8,$9,0*
20,1,$1+$1,$8,$9,$2,$3,0*%
G04 Aperture macros list end*
%ADD10RoundRect,0.275000X0.375000X-0.225000X0.375000X0.225000X-0.375000X0.225000X-0.375000X-0.225000X0*%
%ADD11RoundRect,0.050000X1.500000X1.500000X-1.500000X1.500000X-1.500000X-1.500000X1.500000X-1.500000X0*%
%ADD12C,3.100000*%
%ADD13RoundRect,0.200000X-0.150000X0.587500X-0.150000X-0.587500X0.150000X-0.587500X0.150000X0.587500X0*%
%ADD14RoundRect,0.300000X-1.000000X1.750000X-1.000000X-1.750000X1.000000X-1.750000X1.000000X1.750000X0*%
%ADD15RoundRect,0.050000X1.500000X-1.500000X1.500000X1.500000X-1.500000X1.500000X-1.500000X-1.500000X0*%
%ADD16RoundRect,0.050000X1.000000X-1.000000X1.000000X1.000000X-1.000000X1.000000X-1.000000X-1.000000X0*%
%ADD17C,2.100000*%
%ADD18RoundRect,0.050000X1.000000X-1.600000X1.000000X1.600000X-1.000000X1.600000X-1.000000X-1.600000X0*%
%ADD19RoundRect,0.200000X0.150000X-0.825000X0.150000X0.825000X-0.150000X0.825000X-0.150000X-0.825000X0*%
%ADD20O,1.800000X1.800000*%
%ADD21RoundRect,0.050000X0.850000X0.850000X-0.850000X0.850000X-0.850000X-0.850000X0.850000X-0.850000X0*%
%ADD22RoundRect,0.300000X-0.475000X0.250000X-0.475000X-0.250000X0.475000X-0.250000X0.475000X0.250000X0*%
%ADD23RoundRect,0.300000X-0.550000X1.412500X-0.550000X-1.412500X0.550000X-1.412500X0.550000X1.412500X0*%
%ADD24RoundRect,0.300000X-0.250000X-0.475000X0.250000X-0.475000X0.250000X0.475000X-0.250000X0.475000X0*%
%ADD25RoundRect,0.300000X0.250000X0.475000X-0.250000X0.475000X-0.250000X-0.475000X0.250000X-0.475000X0*%
%ADD26RoundRect,0.050000X3.000000X3.000000X-3.000000X3.000000X-3.000000X-3.000000X3.000000X-3.000000X0*%
%ADD27RoundRect,0.300000X0.475000X-0.250000X0.475000X0.250000X-0.475000X0.250000X-0.475000X-0.250000X0*%
%ADD28RoundRect,0.300000X0.450000X-0.262500X0.450000X0.262500X-0.450000X0.262500X-0.450000X-0.262500X0*%
%ADD29RoundRect,0.300000X-0.262500X-0.450000X0.262500X-0.450000X0.262500X0.450000X-0.262500X0.450000X0*%
%ADD30RoundRect,0.300000X0.262500X0.450000X-0.262500X0.450000X-0.262500X-0.450000X0.262500X-0.450000X0*%
%ADD31RoundRect,0.300000X-0.450000X0.262500X-0.450000X-0.262500X0.450000X-0.262500X0.450000X0.262500X0*%
%ADD32O,1.700000X1.700000*%
%ADD33RoundRect,0.050000X-0.800000X-0.800000X0.800000X-0.800000X0.800000X0.800000X-0.800000X0.800000X0*%
%ADD34RoundRect,0.200000X-0.587500X-0.150000X0.587500X-0.150000X0.587500X0.150000X-0.587500X0.150000X0*%
%ADD35RoundRect,0.150000X-0.100000X0.637500X-0.100000X-0.637500X0.100000X-0.637500X0.100000X0.637500X0*%
%ADD36C,3.300000*%
%ADD37RoundRect,0.300000X-0.850000X-0.350000X0.850000X-0.350000X0.850000X0.350000X-0.850000X0.350000X0*%
%ADD38RoundRect,0.299997X-2.950003X-2.650003X2.950003X-2.650003X2.950003X2.650003X-2.950003X2.650003X0*%
%ADD39RoundRect,0.200000X-0.512500X-0.150000X0.512500X-0.150000X0.512500X0.150000X-0.512500X0.150000X0*%
%ADD40RoundRect,0.300000X0.850000X0.350000X-0.850000X0.350000X-0.850000X-0.350000X0.850000X-0.350000X0*%
%ADD41RoundRect,0.299997X2.950003X2.650003X-2.950003X2.650003X-2.950003X-2.650003X2.950003X-2.650003X0*%
%ADD42RoundRect,0.050000X-1.900000X1.000000X-1.900000X-1.000000X1.900000X-1.000000X1.900000X1.000000X0*%
%ADD43RoundRect,0.050000X-0.750000X1.000000X-0.750000X-1.000000X0.750000X-1.000000X0.750000X1.000000X0*%
%ADD44C,1.800000*%
%ADD45RoundRect,0.875000X1.205000X0.825000X-1.205000X0.825000X-1.205000X-0.825000X1.205000X-0.825000X0*%
%ADD46RoundRect,1.300000X1.925000X1.250000X-1.925000X1.250000X-1.925000X-1.250000X1.925000X-1.250000X0*%
%ADD47RoundRect,0.050000X-0.750000X-0.300000X0.750000X-0.300000X0.750000X0.300000X-0.750000X0.300000X0*%
%ADD48RoundRect,0.150000X0.100000X-0.637500X0.100000X0.637500X-0.100000X0.637500X-0.100000X-0.637500X0*%
G04 APERTURE END LIST*
D10*
%TO.C,D8*%
X177000000Y-31650000D03*
X177000000Y-28350000D03*
%TD*%
%TO.C,D7*%
X177000000Y-44150000D03*
X177000000Y-40850000D03*
%TD*%
D11*
%TO.C,J7*%
X69790000Y-19750000D03*
D12*
X64710000Y-19750000D03*
%TD*%
D13*
%TO.C,Q27*%
X78200000Y-89062500D03*
X76300000Y-89062500D03*
X77250000Y-90937500D03*
%TD*%
%TO.C,Q28*%
X73700000Y-89062500D03*
X71800000Y-89062500D03*
X72750000Y-90937500D03*
%TD*%
%TO.C,Q11*%
X69200000Y-89062500D03*
X67300000Y-89062500D03*
X68250000Y-90937500D03*
%TD*%
%TO.C,Q26*%
X64700000Y-89062500D03*
X62800000Y-89062500D03*
X63750000Y-90937500D03*
%TD*%
D14*
%TO.C,C5*%
X124000000Y-26000000D03*
X124000000Y-34000000D03*
%TD*%
%TO.C,C4*%
X138000000Y-26000000D03*
X138000000Y-34000000D03*
%TD*%
D11*
%TO.C,J1*%
X133540000Y-18750000D03*
D12*
X128460000Y-18750000D03*
%TD*%
D15*
%TO.C,J2*%
X183000000Y-45040000D03*
D12*
X183000000Y-39960000D03*
%TD*%
D15*
%TO.C,J3*%
X183000000Y-32540000D03*
D12*
X183000000Y-27460000D03*
%TD*%
D16*
%TO.C,SW1*%
X167250000Y-89500000D03*
D17*
X172250000Y-89500000D03*
X169750000Y-89500000D03*
D18*
X175350000Y-82000000D03*
X164150000Y-82000000D03*
D17*
X172250000Y-75000000D03*
X167250000Y-75000000D03*
%TD*%
D19*
%TO.C,U2*%
X68305000Y-81975000D03*
X69575000Y-81975000D03*
X70845000Y-81975000D03*
X72115000Y-81975000D03*
X73385000Y-81975000D03*
X74655000Y-81975000D03*
X75925000Y-81975000D03*
X77195000Y-81975000D03*
X77195000Y-77025000D03*
X75925000Y-77025000D03*
X74655000Y-77025000D03*
X73385000Y-77025000D03*
X72115000Y-77025000D03*
X70845000Y-77025000D03*
X69575000Y-77025000D03*
X68305000Y-77025000D03*
%TD*%
D20*
%TO.C,J5*%
X58000000Y-55960000D03*
X58000000Y-58500000D03*
D21*
X58000000Y-61040000D03*
%TD*%
D22*
%TO.C,C14*%
X155000000Y-59300000D03*
X155000000Y-61200000D03*
%TD*%
D23*
%TO.C,C18*%
X161000000Y-57462500D03*
X161000000Y-62537500D03*
%TD*%
D24*
%TO.C,C22*%
X133300000Y-61750000D03*
X135200000Y-61750000D03*
%TD*%
D25*
%TO.C,C17*%
X129450000Y-61750000D03*
X127550000Y-61750000D03*
%TD*%
D22*
%TO.C,C1*%
X77750000Y-51125000D03*
X77750000Y-53025000D03*
%TD*%
D25*
%TO.C,C6*%
X95700000Y-77500000D03*
X93800000Y-77500000D03*
%TD*%
D26*
%TO.C,L1*%
X162650000Y-25000000D03*
X149350000Y-25000000D03*
%TD*%
%TO.C,L2*%
X112650000Y-25000000D03*
X99350000Y-25000000D03*
%TD*%
D27*
%TO.C,C9*%
X110500000Y-58950000D03*
X110500000Y-57050000D03*
%TD*%
%TO.C,C10*%
X105500000Y-58950000D03*
X105500000Y-57050000D03*
%TD*%
D28*
%TO.C,R11*%
X77750000Y-56912500D03*
X77750000Y-58737500D03*
%TD*%
D29*
%TO.C,R15*%
X98587500Y-82750000D03*
X100412500Y-82750000D03*
%TD*%
%TO.C,R16*%
X98587500Y-85250000D03*
X100412500Y-85250000D03*
%TD*%
%TO.C,R17*%
X98587500Y-87750000D03*
X100412500Y-87750000D03*
%TD*%
%TO.C,R18*%
X98587500Y-90250000D03*
X100412500Y-90250000D03*
%TD*%
%TO.C,R19*%
X98587500Y-92750000D03*
X100412500Y-92750000D03*
%TD*%
%TO.C,R20*%
X98587500Y-77750000D03*
X100412500Y-77750000D03*
%TD*%
%TO.C,R21*%
X98587500Y-80250000D03*
X100412500Y-80250000D03*
%TD*%
D30*
%TO.C,R22*%
X67337500Y-85750000D03*
X69162500Y-85750000D03*
%TD*%
%TO.C,R23*%
X62837500Y-85750000D03*
X64662500Y-85750000D03*
%TD*%
%TO.C,R24*%
X76337500Y-85750000D03*
X78162500Y-85750000D03*
%TD*%
%TO.C,R25*%
X71837500Y-85750000D03*
X73662500Y-85750000D03*
%TD*%
D22*
%TO.C,C2*%
X177250000Y-92550000D03*
X177250000Y-94450000D03*
%TD*%
%TO.C,C3*%
X162250000Y-94450000D03*
X162250000Y-92550000D03*
%TD*%
D28*
%TO.C,R1*%
X174750000Y-94412500D03*
X174750000Y-92587500D03*
%TD*%
D31*
%TO.C,R4*%
X172250000Y-92587500D03*
X172250000Y-94412500D03*
%TD*%
%TO.C,R5*%
X167250000Y-92587500D03*
X167250000Y-94412500D03*
%TD*%
%TO.C,R10*%
X164750000Y-92587500D03*
X164750000Y-94412500D03*
%TD*%
%TO.C,R14*%
X70500000Y-25837500D03*
X70500000Y-27662500D03*
%TD*%
D24*
%TO.C,C16*%
X118662500Y-69500000D03*
X120562500Y-69500000D03*
%TD*%
D17*
%TO.C,U12*%
X133420000Y-90080000D03*
X135960000Y-90080000D03*
X138500000Y-90080000D03*
X141040000Y-90080000D03*
X143580000Y-90080000D03*
X143580000Y-79920000D03*
X141040000Y-79920000D03*
X138500000Y-79920000D03*
X135960000Y-79920000D03*
X133420000Y-79920000D03*
%TD*%
D32*
%TO.C,U10*%
X88320000Y-51075000D03*
X88320000Y-53615000D03*
X88320000Y-56155000D03*
X88320000Y-58695000D03*
X88320000Y-61235000D03*
X88320000Y-63775000D03*
X88320000Y-66315000D03*
X88320000Y-68855000D03*
X88320000Y-71395000D03*
X88320000Y-73935000D03*
X80700000Y-73935000D03*
X80700000Y-71395000D03*
X80700000Y-68855000D03*
X80700000Y-66315000D03*
X80700000Y-63775000D03*
X80700000Y-61235000D03*
X80700000Y-58695000D03*
X80700000Y-56155000D03*
X80700000Y-53615000D03*
D33*
X80700000Y-51075000D03*
%TD*%
D27*
%TO.C,C13*%
X68250000Y-73700000D03*
X68250000Y-71800000D03*
%TD*%
D34*
%TO.C,U3*%
X60562500Y-40050000D03*
X60562500Y-41950000D03*
X62437500Y-41000000D03*
%TD*%
D24*
%TO.C,C20*%
X59800000Y-27650000D03*
X61700000Y-27650000D03*
%TD*%
D35*
%TO.C,U1*%
X68950000Y-37612500D03*
X68300000Y-37612500D03*
X67650000Y-37612500D03*
X67000000Y-37612500D03*
X66350000Y-37612500D03*
X65700000Y-37612500D03*
X65050000Y-37612500D03*
X65050000Y-31887500D03*
X65700000Y-31887500D03*
X66350000Y-31887500D03*
X67000000Y-31887500D03*
X67650000Y-31887500D03*
X68300000Y-31887500D03*
X68950000Y-31887500D03*
%TD*%
D36*
%TO.C,H3*%
X51000000Y-93000000D03*
%TD*%
D37*
%TO.C,Q8*%
X135960000Y-39720000D03*
D38*
X142260000Y-42000000D03*
D37*
X135960000Y-44280000D03*
%TD*%
D29*
%TO.C,R26*%
X124587500Y-66750000D03*
X126412500Y-66750000D03*
%TD*%
D39*
%TO.C,U5*%
X113975000Y-68550000D03*
X113975000Y-69500000D03*
X113975000Y-70450000D03*
X116250000Y-70450000D03*
X116250000Y-69500000D03*
X116250000Y-68550000D03*
%TD*%
D10*
%TO.C,D4*%
X79500000Y-40350000D03*
X79500000Y-43650000D03*
%TD*%
D30*
%TO.C,R8*%
X116275000Y-73000000D03*
X114450000Y-73000000D03*
%TD*%
D31*
%TO.C,R13*%
X64000000Y-25837500D03*
X64000000Y-27662500D03*
%TD*%
D40*
%TO.C,Q10*%
X126040000Y-44280000D03*
D41*
X119740000Y-42000000D03*
D40*
X126040000Y-39720000D03*
%TD*%
%TO.C,Q1*%
X145040000Y-53280000D03*
D41*
X138740000Y-51000000D03*
D40*
X145040000Y-48720000D03*
%TD*%
D28*
%TO.C,R12*%
X65750000Y-42162500D03*
X65750000Y-40337500D03*
%TD*%
D10*
%TO.C,D5*%
X74000000Y-40350000D03*
X74000000Y-43650000D03*
%TD*%
D17*
%TO.C,U6*%
X109670000Y-90080000D03*
X112210000Y-90080000D03*
X114750000Y-90080000D03*
X117290000Y-90080000D03*
X119830000Y-90080000D03*
X119830000Y-79920000D03*
X117290000Y-79920000D03*
X114750000Y-79920000D03*
X112210000Y-79920000D03*
X109670000Y-79920000D03*
%TD*%
D27*
%TO.C,C8*%
X125500000Y-70950000D03*
X125500000Y-69050000D03*
%TD*%
D29*
%TO.C,R9*%
X114450000Y-66000000D03*
X116275000Y-66000000D03*
%TD*%
D28*
%TO.C,R7*%
X71250000Y-42162500D03*
X71250000Y-40337500D03*
%TD*%
D29*
%TO.C,R2*%
X135587500Y-66750000D03*
X137412500Y-66750000D03*
%TD*%
D42*
%TO.C,U9*%
X108000000Y-68150000D03*
D43*
X105700000Y-61850000D03*
X108000000Y-61850000D03*
X110300000Y-61850000D03*
%TD*%
D36*
%TO.C,H4*%
X183000000Y-93000000D03*
%TD*%
D37*
%TO.C,Q2*%
X116960000Y-48720000D03*
D38*
X123260000Y-51000000D03*
D37*
X116960000Y-53280000D03*
%TD*%
D28*
%TO.C,R6*%
X76750000Y-42162500D03*
X76750000Y-40337500D03*
%TD*%
D24*
%TO.C,C12*%
X60550000Y-37750000D03*
X62450000Y-37750000D03*
%TD*%
%TO.C,C11*%
X60550000Y-44250000D03*
X62450000Y-44250000D03*
%TD*%
D29*
%TO.C,R27*%
X124587500Y-64250000D03*
X126412500Y-64250000D03*
%TD*%
D22*
%TO.C,C7*%
X136500000Y-69050000D03*
X136500000Y-70950000D03*
%TD*%
D29*
%TO.C,R3*%
X135587500Y-64250000D03*
X137412500Y-64250000D03*
%TD*%
D25*
%TO.C,C19*%
X74700000Y-27650000D03*
X72800000Y-27650000D03*
%TD*%
%TO.C,C15*%
X68200000Y-27650000D03*
X66300000Y-27650000D03*
%TD*%
D36*
%TO.C,H1*%
X51000000Y-19000000D03*
%TD*%
D44*
%TO.C,J6*%
X182630200Y-58308100D03*
D45*
X169727000Y-57546100D03*
D46*
X178871000Y-64734300D03*
X178871000Y-51450100D03*
%TD*%
D47*
%TO.C,U4*%
X88700000Y-80305000D03*
X88700000Y-81575000D03*
X88700000Y-82845000D03*
X88700000Y-84115000D03*
X88700000Y-85385000D03*
X88700000Y-86655000D03*
X88700000Y-87925000D03*
X88700000Y-89195000D03*
X95800000Y-89195000D03*
X95800000Y-87925000D03*
X95800000Y-86655000D03*
X95800000Y-85385000D03*
X95800000Y-84115000D03*
X95800000Y-82845000D03*
X95800000Y-81575000D03*
X95800000Y-80305000D03*
%TD*%
D48*
%TO.C,U11*%
X128725000Y-65887500D03*
X129375000Y-65887500D03*
X130025000Y-65887500D03*
X130675000Y-65887500D03*
X131325000Y-65887500D03*
X131975000Y-65887500D03*
X132625000Y-65887500D03*
X133275000Y-65887500D03*
X133275000Y-71612500D03*
X132625000Y-71612500D03*
X131975000Y-71612500D03*
X131325000Y-71612500D03*
X130675000Y-71612500D03*
X130025000Y-71612500D03*
X129375000Y-71612500D03*
X128725000Y-71612500D03*
%TD*%
D10*
%TO.C,D3*%
X68500000Y-43650000D03*
X68500000Y-40350000D03*
%TD*%
D36*
%TO.C,H2*%
X183000000Y-19000000D03*
%TD*%
M02*
